<?xml version="1.0" encoding="UTF-8"?>
<svg id="Calque_2" data-name="Calque 2" xmlns="http://www.w3.org/2000/svg" viewBox="0 0 842.04 547.51">
  <defs>
    <style>
      .cls-1 {
        stroke-width: 0px;
      }
    </style>
  </defs>
  <g id="Calque_1-2" data-name="Calque 1">
    <g>
      <path class="cls-1" d="M565.28,399.11h37.77l4.49,41.48c-3.46-12.58-15.3-21.53-28.24-27.33-7.62-3.53-13.8-4.26-23.29-4.4v122.96c.14,8.76,3.24,13.99,9.28,15.69h-54.38c6.19-1.84,9.28-7.07,9.28-15.69v-122.96c-19.13.28-34.27,4.51-43.91,16.81-3.31,4.38-8.07,9.83-9.51,14.92l5.31-41.48h93.21Z"/>
      <path class="cls-1" d="M556,352.2c.89-8.33,7.54-14.5,11.31-14.5h-56.55c6.04,0,8.8,9.67,9.42,14.5v72.49h35.82v-72.49Z"/>
    </g>
    <g>
      <path class="cls-1" d="M53.26.01l56.57,138.24L165.95.01h53.47c-10.51,2.8-12.29,11.67-12.3,21.24v159.1c0,9.57,1.8,18.44,12.3,21.25h-72.42c10.52-2.82,12.31-11.71,12.31-21.3V51.15l-60.76,150.45h-14.47L25.55,58.52v107.98c0,9.57,1.8,32.29,12.3,35.1H0c10.52-2.82,12.31-25.56,12.31-35.15V21.3C12.31,11.71,10.52,2.82,0,0h53.26Z"/>
      <path class="cls-1" d="M309.05,54.6l46.34,127.5c2.55,6.78,8.27,19.31,13.48,19.52h-58.17c6.96-1.87,10.91-9.26,7.58-19.52l-7.22-19.86h-54.23l-2.99,8.05c-6.16,22.99,3.57,31.33,9.35,31.33h-37.7c5.25-1.41,14.49-21.21,18.38-32.17l35.12-95.43c-3.6-7.61-8.25-19.5-16.62-19.5l46.67.08ZM260.4,152.58h47.15l-23.4-64.37-23.76,64.37Z"/>
      <path class="cls-1" d="M425.64,54.59c-7.66,2.05-8.96,8.52-8.97,15.5v116.02c0,6.98,1.31,13.45,8.97,15.5h-52.81c7.67-2.06,8.97-8.54,8.97-15.53v-115.95c0-6.99-1.3-13.47-8.97-15.53h52.81Z"/>
      <path class="cls-1" d="M466.35,53.84c8.47-1.82,16.74-1.28,25.37.05,13.67,2.32,26.17,7.58,33.52,12.71l-8.71,39.75c-.18-17.66-19.12-51.44-45.45-42.53-7.92,2.68-11.3,9.81-10.41,16.71,1.48,11.49,24.08,24.51,40.13,35.66,17.14,11.91,34.17,25.14,35.11,44.07.99,19.92-15.63,40.37-39.82,42.41-23.18,1.95-41.48-3.35-59.22-15.34l8.72-39.75c0,15.3,12.04,31.96,26.16,39.86,13.77,7.7,36.17,9.23,38.39-8.22,1.3-10.21-18.57-21.25-33.23-31.54-20.47-14.38-41.05-27.34-42.86-51.75,0-22.67,13.15-37.88,32.32-42.08h0Z"/>
      <path class="cls-1" d="M663.63,73.76c19.7,21.01,26.71,54.23,15.34,83.84-14.65,38.17-54.28,55.91-88.52,39.62-34.23-16.29-50.11-60.44-35.45-98.61,12.45-32.43,42.93-50.11,72.82-44.7,13.98,2.6,24.73,9.06,35.81,19.85ZM617.4,62.48c-17.88-.21-24.61,27.17-24.84,65.45-.23,38.29,6.18,65.75,24.06,65.76,17.88,0,24.61-27.17,24.84-65.46.2-33.5-4.68-58.56-17.88-64.44-1.89-.84-3.94-1.29-6.18-1.32Z"/>
      <path class="cls-1" d="M733.8,54.6l58.59,108.66v-83.04c0-6.99-1.3-23.57-8.97-25.63h27.61c-7.66,2.05-8.97,18.62-8.97,25.6v105.92c0,6.98,1.31,13.45,8.97,15.5h-38.51l-59.03-106.72v81.13c0,6.98,1.31,23.54,8.97,25.6h-27.61c7.67-2.06,8.97-18.64,8.97-25.63v-105.85c0-6.99-1.3-13.47-8.97-15.53h38.95Z"/>
      <path class="cls-1" d="M72.44,345.6c-10.51,2.82-12.3,11.68-12.3,21.25v73.09h64.04v-73.05c0-9.59-1.78-18.48-12.31-21.3h72.42c-10.51,2.82-12.29,11.68-12.3,21.25v159.1c0,9.57,1.8,18.44,12.3,21.25h-72.42c10.52-2.82,12.31-11.71,12.31-21.3v-72.72H60.14v72.76c0,9.57,1.8,18.44,12.3,21.25H.03c10.52-2.82,12.3-11.71,12.3-21.3v-159.01c0-9.59-1.78-18.48-12.3-21.3h72.42Z"/>
      <path class="cls-1" d="M273.91,400.2l46.34,127.5c2.55,6.78,8.27,19.31,13.48,19.52h-58.17c6.96-1.86,10.91-9.26,7.58-19.52l-7.22-19.86h-54.23l-2.99,8.05c-6.16,23,3.57,31.33,9.35,31.33h-37.7c5.25-1.41,14.49-21.21,18.38-32.17l35.12-95.43c-3.6-7.61-8.25-19.5-16.62-19.5l46.67.08ZM225.27,498.18h47.15l-23.4-64.37-23.76,64.37Z"/>
      <path class="cls-1" d="M376.74,400.2l58.59,108.66v-83.04c0-6.99-1.3-23.57-8.97-25.63h27.61c-7.66,2.05-8.97,18.62-8.97,25.6v105.92c0,6.98,1.31,13.45,8.97,15.5h-38.51l-59.03-106.72v81.13c0,6.98,1.31,23.54,8.97,25.6h-27.61c7.67-2.06,8.97-18.64,8.97-25.63v-105.85c0-6.99-1.3-13.48-8.97-15.53h38.95Z"/>
      <path class="cls-1" d="M723.6,400.2v42.52c-4.85-18.11-22.31-32.86-50.2-32.86h-13.94v59.14h18.67c14.28,0,21.65-9.78,23.62-17.15v43.72c-1.36-5.07-9.67-16.91-23.62-16.91h-18.67v58.89h14.69c30.64,0,45.34-17.52,49.45-32.83v42.49h-107.97c7.67-2.06,8.97-8.54,8.97-15.53v-115.95c0-6.99-1.3-13.48-8.97-15.53h107.98Z"/>
      <path class="cls-1" d="M842.04,400.2v42.52c-4.85-18.11-22.31-32.86-50.2-32.86h-13.94v59.14h18.67c14.28,0,21.65-9.78,23.62-17.15v43.72c-1.36-5.07-9.67-16.91-23.62-16.91h-18.67v58.89h14.69c30.64,0,45.34-17.52,49.45-32.83v42.49h-107.97c7.67-2.06,8.97-8.54,8.97-15.53v-115.95c0-6.99-1.3-13.48-8.97-15.53h107.98Z"/>
    </g>
    <path class="cls-1" d="M643.98,391.08l55-53,6,16c-10-4-61,37-61,37Z"/>
  </g>
</svg>