<svg width="229" height="42" viewBox="0 0 229 42" fill="none" xmlns="http://www.w3.org/2000/svg">
<path d="M0.589996 0.700034H30.916V12.618C29.972 9.1567 27.7497 6.60004 24.249 4.94804C22.0463 3.92537 19.5683 3.41404 16.815 3.41404H12.921V20.052H18.172C20.9647 20.052 22.9903 18.872 24.249 16.512C24.485 16.0794 24.662 15.6467 24.78 15.214V27.486C24.4653 26.2667 23.6 25.1457 22.184 24.123C20.9253 23.2184 19.588 22.766 18.172 22.766H12.921V39.286H17.051C22.6757 39.286 26.786 37.3587 29.382 33.504C30.09 32.4027 30.6013 31.262 30.916 30.082V42H0.589996C2.242 41.4887 3.08766 40.0334 3.127 37.634V5.06604C3.04833 2.62737 2.20266 1.17204 0.589996 0.700034Z" fill="black"/>
<path d="M32.2695 12.5916H40.0417L51.7631 34.3118V17.7171C51.7631 15.2243 51.343 13.5999 50.5027 12.8437C50.3347 12.7316 50.1666 12.6476 49.9986 12.5916H55.5022C54.4378 12.8717 53.8497 14.4121 53.7376 17.2129C53.7096 17.381 53.6956 17.549 53.6956 17.7171V38.8911C53.7517 40.6276 53.6956 41.288 53.6956 42H47.8139L36.0086 20.6579V36.8746C36.0086 39.3673 36.4287 40.9777 37.2689 41.706C37.465 41.846 37.633 41.944 37.7731 42H32.2695C33.3618 41.72 33.95 40.1795 34.034 37.3787C34.062 37.1827 34.076 37.0146 34.076 36.8746V15.7005C34.02 13.964 33.4178 12.9277 32.2695 12.5916Z" fill="black"/>
<path fill-rule="evenodd" clip-rule="evenodd" d="M68.1579 12.6336C67.6538 12.6056 66.9116 12.5916 65.9313 12.5916H56.3526C57.5289 12.9277 58.1311 13.964 58.1591 15.7005V38.8911C58.1591 40.5996 57.5569 41.6359 56.3526 42H68.1159C72.009 42 75.1319 40.7397 77.4846 38.219C80.0614 35.4181 81.3497 31.6651 81.3497 26.9597C81.3497 23.3747 80.3694 20.3078 78.4089 17.7591C75.9442 14.6222 72.5272 12.9137 68.1579 12.6336ZM65.1331 40.0675H65.5112C68.4801 40.0675 70.7767 38.6951 72.4012 35.9503C73.7176 33.6536 74.3758 30.6568 74.3758 26.9597C74.3758 20.5179 72.4852 16.5547 68.7041 15.0703C67.7239 14.7062 66.6595 14.5241 65.5112 14.5241H65.1331V40.0675Z" fill="black"/>
<path fill-rule="evenodd" clip-rule="evenodd" d="M137.07 0.759032C136.362 0.7197 135.32 0.700034 133.943 0.700034H120.491C122.143 1.17204 122.989 2.62737 123.028 5.06604V37.634C123.028 40.0334 122.183 41.4887 120.491 42H137.011C142.479 42 146.864 40.23 150.168 36.69C153.787 32.7567 155.596 27.486 155.596 20.878C155.596 15.8434 154.22 11.5364 151.466 7.95704C148.005 3.5517 143.206 1.15237 137.07 0.759032ZM132.822 39.286H133.353C137.523 39.286 140.748 37.3587 143.029 33.504C144.878 30.2787 145.802 26.07 145.802 20.878C145.802 11.8314 143.147 6.26569 137.837 4.18102C136.461 3.66969 134.966 3.41402 133.353 3.41402H132.822V39.286Z" fill="black"/>
<path fill-rule="evenodd" clip-rule="evenodd" d="M162.271 14.2272L163.896 16.5266L156.906 35.5722C156.738 36.0483 156.528 36.5664 156.276 37.1266C154.987 40.1795 153.965 41.804 153.209 42H160.771C160.379 42 159.987 41.832 159.595 41.4959C158.362 40.4316 158.124 38.513 158.88 35.7402L159.469 34.1438H170.308L171.778 38.0929C171.946 38.653 172.016 39.1992 171.988 39.7314C171.904 40.9637 171.33 41.7199 170.266 42H181.903L179.212 38.1928C179.199 38.1597 179.185 38.1264 179.172 38.0929L170.15 14.2293L162.271 14.2272ZM164.93 19.3135L160.183 32.2112H169.635L164.93 19.3135Z" fill="black"/>
<path d="M206.715 12.5916H228.309V21.078C227.637 18.6133 226.055 16.7928 223.562 15.6164C221.993 14.8882 220.229 14.5241 218.268 14.5241H215.496V26.3715H219.235C221.223 26.3715 222.666 25.5313 223.562 23.8508C223.73 23.5427 223.856 23.2346 223.94 22.9265V31.665C223.716 30.7968 223.1 29.9986 222.091 29.2704C221.195 28.6262 220.243 28.3041 219.235 28.3041H215.496V40.0675H218.436C222.442 40.0675 225.368 38.6951 227.217 35.9503C227.721 35.1661 228.085 34.3538 228.309 33.5136V42H206.715C207.891 41.6359 208.494 40.5996 208.522 38.8911V15.7005C208.466 13.964 207.863 12.9277 206.715 12.5916Z" fill="black"/>
<path d="M196.647 12.5916C196.647 12.5916 198.678 12.5916 204 12.5916L204.874 20.811C204.201 18.3183 201.896 16.5439 199.375 15.3956C197.891 14.6954 196.689 14.5521 194.841 14.5241V38.8911C194.869 40.6276 195.471 41.6639 196.647 42H186.06C187.265 41.6359 187.867 40.5996 187.867 38.8911V14.5241C184.142 14.5801 181.194 15.4179 179.318 17.8546C178.674 18.7229 177.747 19.8027 177.467 20.811L178.5 12.5916H188.072H194.841H196.647Z" fill="black"/>
<path d="M194.712 3.54829C194.88 1.91203 196.136 0.700012 196.848 0.700012L186.167 0.700013C187.307 0.700013 187.829 2.59886 187.947 3.54829V17.7897L194.712 17.7897V3.54829Z" fill="black"/>
</svg>
